<svg version="1.1" id="Layer_1" xmlns="http://www.w3.org/2000/svg" xmlns:xlink="http://www.w3.org/1999/xlink" x="0px" y="0px"
	 width="100%" viewBox="0 0 496 496" enable-background="new 0 0 496 496" xml:space="preserve">
<path fill="#000000" opacity="1.000000" stroke="none" 
	d="
M166.878540,340.684814 
	C168.358719,340.683868 169.370987,340.580750 170.356476,340.699768 
	C174.544724,341.205414 175.845123,339.326355 175.804077,335.238251 
	C175.636795,318.574066 175.918884,301.903961 175.623077,285.243317 
	C175.528488,279.914642 177.158035,276.547760 181.922928,274.022461 
	C187.354202,271.144012 192.266754,267.296722 197.653137,264.319977 
	C200.909790,262.520233 201.890305,260.267548 201.869873,256.702972 
	C201.749481,235.704849 201.924469,214.704865 201.771210,193.707199 
	C201.737732,189.120422 203.353973,185.934906 206.724640,182.901016 
	C216.751450,173.875977 226.626846,164.672394 236.295334,155.265137 
	C239.688858,151.963272 242.658218,151.593765 246.406067,154.214737 
	C260.879211,164.336243 275.373505,174.427811 289.902954,184.468277 
	C292.327271,186.143585 293.473907,188.211975 293.389313,191.173874 
	C293.266663,195.469391 293.357880,199.771011 293.357880,203.949646 
	C290.720032,204.935944 289.544586,203.107498 288.148224,202.144119 
	C273.062927,191.736252 257.948395,181.367432 243.020493,170.737045 
	C239.226685,168.035416 236.601562,167.892578 233.167191,171.337463 
	C227.173950,177.349060 220.775070,182.964935 214.408722,188.591095 
	C212.224060,190.521759 211.281250,192.608643 211.284912,195.522614 
	C211.343933,242.353546 211.351181,289.184570 211.276199,336.015442 
	C211.270767,339.405975 212.288147,340.876251 215.841751,340.740692 
	C221.167130,340.537506 226.511688,340.532288 231.836945,340.735413 
	C235.551620,340.877075 236.870026,339.393280 236.780869,335.749817 
	C236.609695,328.754486 236.701828,321.751404 236.770020,314.752411 
	C236.785461,313.169098 236.218460,311.411255 237.623077,310.009949 
	C239.770584,309.536682 241.014130,311.190674 242.439972,312.170135 
	C255.073624,320.848328 267.688385,329.555206 280.223694,338.374390 
	C282.525787,339.994019 284.816040,340.973602 287.621826,340.692841 
	C289.065857,340.548309 290.845581,341.039032 291.493896,339.199707 
	C292.202240,337.190186 291.248535,335.682312 289.578766,334.514984 
	C282.887238,329.837067 276.219666,325.124817 269.527802,320.447357 
	C259.695953,313.575165 249.887695,306.668091 239.984329,299.900269 
	C237.666275,298.316132 236.646378,296.464722 236.712997,293.676361 
	C236.842499,288.256927 236.750916,282.832153 236.750916,277.409607 
	C237.244217,277.124420 237.737503,276.839233 238.230804,276.554047 
	C255.620056,288.567627 273.009308,300.581207 290.500977,312.665558 
	C293.127380,306.114105 292.335907,303.465881 287.317535,299.990662 
	C271.703003,289.177673 256.141174,278.288361 240.486572,267.533936 
	C237.895081,265.753632 236.604172,263.727203 236.711823,260.523163 
	C236.888809,255.255020 236.759796,249.976593 236.759796,244.702499 
	C237.235718,244.380325 237.711639,244.058167 238.187546,243.735992 
	C255.559845,255.740250 272.932129,267.744507 290.407410,279.819946 
	C293.069824,273.399109 292.400513,270.820587 287.629272,267.503510 
	C272.580414,257.041168 257.610474,246.462234 242.432724,236.190338 
	C238.290970,233.387314 236.042664,230.324997 236.697876,225.160294 
	C237.254211,220.775116 236.182388,216.253494 237.301086,211.946869 
	C239.726425,211.127548 241.003555,212.794357 242.416580,213.774887 
	C268.970703,232.200958 295.464233,250.714447 322.057404,269.083740 
	C325.156860,271.224701 326.304840,273.650604 326.275360,277.380951 
	C326.123932,296.545380 326.345428,315.713226 326.124115,334.876282 
	C326.070404,339.524750 327.552094,340.986572 332.128693,340.776611 
	C339.446289,340.440918 346.799469,340.466858 354.120148,340.766479 
	C358.614563,340.950409 360.056183,339.220428 359.731415,334.935577 
	C359.445099,331.158417 359.671509,327.342407 359.671509,323.380341 
	C356.226807,323.004974 353.316406,322.662354 350.400360,322.377747 
	C347.845398,322.128387 345.567108,321.113464 343.409271,319.839111 
	C336.456238,315.733002 335.593567,308.679443 341.584839,303.363434 
	C343.631073,301.547821 345.085541,300.056366 344.094086,297.076996 
	C343.446136,295.129822 344.164062,293.096161 345.089233,291.287323 
	C348.783813,284.063660 355.496521,282.093536 362.727966,282.181641 
	C369.401093,282.262939 376.100433,284.058441 378.836334,291.004272 
	C380.481903,295.181946 382.586639,298.106598 386.172241,300.844666 
	C391.824524,305.160858 390.680908,312.786896 384.487274,316.792053 
	C380.643951,319.277374 376.369781,319.691681 371.989410,319.383911 
	C368.481140,319.137421 367.174042,320.699738 367.286774,324.078247 
	C367.425598,328.240387 367.418488,332.411346 367.334595,336.575714 
	C367.274231,339.572601 368.616241,340.759155 371.562286,340.704315 
	C376.726715,340.608154 381.894470,340.692841 387.060852,340.696899 
	C390.071747,340.699249 393.139130,340.165527 393.195221,344.942932 
	C393.248627,349.488739 390.865662,350.067963 387.195129,350.055115 
	C367.363190,349.985687 347.530823,350.055450 327.698578,350.055939 
	C257.038177,350.057709 186.377762,350.050323 115.717346,350.048584 
	C112.143059,350.048492 108.413376,350.484894 108.856598,344.893219 
	C109.084267,342.020935 110.067169,340.637329 113.079216,340.685669 
	C118.910561,340.779266 124.760048,340.432709 130.572952,340.769623 
	C135.323608,341.045013 136.771896,338.986633 136.650024,334.622467 
	C136.487259,328.794373 136.490585,322.952881 136.693970,317.126617 
	C136.819092,313.541779 135.720016,312.000549 131.870453,312.169891 
	C127.307137,312.370605 122.923019,311.164276 119.147850,308.437012 
	C113.351204,304.249390 112.969513,297.183105 118.588448,292.834564 
	C121.024940,290.948944 121.791145,289.138489 121.538445,286.154266 
	C121.027092,280.115387 124.086960,276.041168 129.498077,273.601044 
	C137.513565,269.986481 148.490433,270.800934 153.276703,276.760284 
	C157.552887,282.084534 160.736374,288.179382 165.587189,293.293518 
	C169.310059,297.218475 166.299271,303.643402 160.420303,306.728760 
	C156.976273,308.536224 153.261169,309.564056 149.337463,309.174866 
	C145.733612,308.817413 144.167801,310.066956 144.271805,313.881378 
	C144.471573,321.208893 144.455521,328.548462 144.285522,335.877350 
	C144.197800,339.659882 145.855881,340.836670 149.402756,340.730774 
	C155.063354,340.561798 160.732681,340.685120 166.878540,340.684814 
M187.281937,340.462524 
	C190.106537,340.537537 192.957031,340.397827 195.750015,340.734863 
	C200.676636,341.329346 201.958755,339.206360 201.899460,334.499634 
	C201.671021,316.362183 201.833344,298.220062 201.775009,280.079956 
	C201.768875,278.179779 202.345398,276.122955 200.934814,274.146942 
	C196.852707,275.351746 193.810852,278.357239 190.121750,280.133087 
	C186.569199,281.843170 185.185257,284.465576 185.234116,288.496002 
	C185.421677,303.971252 185.303589,319.450134 185.335449,334.927582 
	C185.339127,336.712250 184.948883,338.640869 187.281937,340.462524 
z"/>
<path fill="#000000" opacity="1.000000" stroke="none" 
	d="
M249.732544,208.300812 
	C236.735382,199.692505 236.719284,199.692459 236.765854,184.371384 
	C236.771255,182.597122 236.285324,180.715012 237.765900,178.590286 
	C242.425293,180.167542 246.153122,183.532669 250.144211,186.247818 
	C263.199554,195.129395 275.981415,204.412949 289.035126,213.297012 
	C292.329224,215.538864 293.651184,218.050613 293.440399,221.947906 
	C293.173340,226.886185 293.375854,231.849854 293.375854,238.564026 
	C278.145172,227.996689 264.090607,218.245361 249.732544,208.300812 
z"/>
<path fill="#000000" opacity="1.000000" stroke="none" 
	d="
M177.384689,231.597717 
	C179.078262,233.369293 181.430374,233.919449 182.504211,236.610764 
	C179.521027,239.275162 176.255203,241.925354 173.628677,246.039032 
	C170.645798,242.343124 167.848602,239.212402 163.836472,236.618134 
	C166.807816,233.018997 171.081741,231.339661 172.441345,227.381775 
	C175.494949,227.646301 175.830322,230.019455 177.384689,231.597717 
z"/>
<path fill="#000000" opacity="1.000000" stroke="none" 
	d="
M335.247192,192.217529 
	C330.115326,191.693512 329.263824,186.239441 324.535370,184.689133 
	C327.978149,181.087723 331.446716,178.828903 333.671417,174.601044 
	C336.949066,178.268875 339.440552,181.510742 343.124817,183.837875 
	C340.901123,187.225616 337.065186,188.575378 335.247192,192.217529 
z"/>
</svg>