<svg width="16" height="16" viewBox="0 0 16 16" fill="none" xmlns="http://www.w3.org/2000/svg">
<path d="M12 14.6668C11.4444 14.6668 10.9722 14.4724 10.5833 14.0835C10.1944 13.6946 10 13.2224 10 12.6668C10 12.5891 10.0056 12.5084 10.0167 12.4248C10.0278 12.3413 10.0444 12.2664 10.0667 12.2002L5.36667 9.46683C5.17778 9.6335 4.96667 9.76416 4.73333 9.85883C4.5 9.9535 4.25556 10.0006 4 10.0002C3.44444 10.0002 2.97222 9.80572 2.58333 9.41683C2.19444 9.02794 2 8.55572 2 8.00016C2 7.44461 2.19444 6.97238 2.58333 6.5835C2.97222 6.19461 3.44444 6.00016 4 6.00016C4.25556 6.00016 4.5 6.0475 4.73333 6.14216C4.96667 6.23683 5.17778 6.36727 5.36667 6.5335L10.0667 3.80016C10.0444 3.7335 10.0278 3.65861 10.0167 3.5755C10.0056 3.49238 10 3.41172 10 3.3335C10 2.77794 10.1944 2.30572 10.5833 1.91683C10.9722 1.52794 11.4444 1.3335 12 1.3335C12.5556 1.3335 13.0278 1.52794 13.4167 1.91683C13.8056 2.30572 14 2.77794 14 3.3335C14 3.88905 13.8056 4.36127 13.4167 4.75016C13.0278 5.13905 12.5556 5.3335 12 5.3335C11.7444 5.3335 11.5 5.28638 11.2667 5.19216C11.0333 5.09794 10.8222 4.96727 10.6333 4.80016L5.93333 7.5335C5.95556 7.60016 5.97222 7.67527 5.98333 7.75883C5.99444 7.84238 6 7.92283 6 8.00016C6 8.07794 5.99444 8.15861 5.98333 8.24216C5.97222 8.32572 5.95556 8.40061 5.93333 8.46683L10.6333 11.2002C10.8222 11.0335 11.0333 10.9031 11.2667 10.8088C11.5 10.7146 11.7444 10.6673 12 10.6668C12.5556 10.6668 13.0278 10.8613 13.4167 11.2502C13.8056 11.6391 14 12.1113 14 12.6668C14 13.2224 13.8056 13.6946 13.4167 14.0835C13.0278 14.4724 12.5556 14.6668 12 14.6668Z" fill="#94A3B8"/>
</svg>
