<svg width="16" height="16" viewBox="0 0 16 16" fill="none" xmlns="http://www.w3.org/2000/svg">
<path d="M8.00002 13.3332C6.51113 13.3332 5.25002 12.8165 4.21669 11.7832C3.18335 10.7498 2.66669 9.48873 2.66669 7.99984C2.66669 6.51095 3.18335 5.24984 4.21669 4.2165C5.25002 3.18317 6.51113 2.6665 8.00002 2.6665C8.76669 2.6665 9.50002 2.82473 10.2 3.14117C10.9 3.45761 11.5 3.9105 12 4.49984V2.6665H13.3334V7.33317H8.66669V5.99984H11.4667C11.1111 5.37762 10.6249 4.88873 10.008 4.53317C9.39113 4.17762 8.7218 3.99984 8.00002 3.99984C6.88891 3.99984 5.94446 4.38873 5.16669 5.1665C4.38891 5.94428 4.00002 6.88873 4.00002 7.99984C4.00002 9.11095 4.38891 10.0554 5.16669 10.8332C5.94446 11.6109 6.88891 11.9998 8.00002 11.9998C8.85558 11.9998 9.6278 11.7554 10.3167 11.2665C11.0056 10.7776 11.4889 10.1332 11.7667 9.33317H13.1667C12.8556 10.5109 12.2222 11.4721 11.2667 12.2165C10.3111 12.9609 9.22224 13.3332 8.00002 13.3332Z" fill="#94A3B8"/>
</svg>
