<svg width="48" height="48" viewBox="0 0 48 48" fill="none" xmlns="http://www.w3.org/2000/svg">
<path d="M38.9829 10.8462C40.3586 12.6619 41.0305 14.9143 40.8745 17.1869C40.7185 19.4596 39.7452 21.5989 38.1343 23.2097L34.8 26.5422C34.559 26.783 34.2322 26.9183 33.8915 26.9183C33.5507 26.9183 33.224 26.783 32.9829 26.5422L21.4663 15.0274C21.2255 14.7863 21.0903 14.4595 21.0903 14.1188C21.0903 13.7781 21.2255 13.4513 21.4663 13.2102L24.8006 9.87595C26.4113 8.2651 28.5507 7.29173 30.8234 7.13575C33.096 6.97976 35.3483 7.6517 37.164 9.02738L42.3823 3.8091C42.6247 3.57478 42.9494 3.44503 43.2865 3.4478C43.6236 3.45057 43.9462 3.58563 44.1847 3.8239C44.4232 4.06217 44.5585 4.38458 44.5616 4.72169C44.5647 5.0588 44.4353 5.38364 44.2012 5.62624L38.9829 10.8462ZM33.8915 23.8165L36.3155 21.3908C37.6015 20.1048 38.3239 18.3606 38.3239 16.542C38.3239 14.7233 37.6015 12.9791 36.3155 11.6931C35.0295 10.4071 33.2853 9.68463 31.4666 9.68463C29.6479 9.68463 27.9037 10.4071 26.6177 11.6931L24.1937 14.1188L33.8915 23.8165ZM21.9035 19.2257C22.1442 19.4667 22.2795 19.7935 22.2795 20.1342C22.2795 20.475 22.1442 20.8017 21.9035 21.0428L18.2589 24.6891L23.3109 29.7411L26.9537 26.0965C27.1963 25.8624 27.5212 25.733 27.8583 25.7361C28.1954 25.7392 28.5178 25.8745 28.7561 26.113C28.9943 26.3515 29.1294 26.6741 29.1322 27.0112C29.135 27.3483 29.0052 27.673 28.7709 27.9154L25.128 31.56L26.5457 32.976C26.6652 33.0954 26.76 33.2371 26.8247 33.3932C26.8893 33.5492 26.9226 33.7165 26.9226 33.8854C26.9226 34.0543 26.8893 34.2215 26.8247 34.3776C26.76 34.5336 26.6652 34.6754 26.5457 34.7948L23.2132 38.1291C21.6022 39.7397 19.4627 40.7127 17.1901 40.8684C14.9174 41.0241 12.6653 40.3519 10.8497 38.976L5.62974 44.196C5.38602 44.4231 5.06365 44.5467 4.73056 44.5408C4.39747 44.535 4.07967 44.4 3.84411 44.1644C3.60854 43.9289 3.47361 43.6111 3.46773 43.278C3.46185 42.9449 3.58549 42.6225 3.8126 42.3788L9.03089 37.1571C7.6552 35.3414 6.98327 33.0891 7.13925 30.8164C7.29524 28.5438 8.2686 26.4044 9.87946 24.7937L13.212 21.4611C13.4531 21.2203 13.7799 21.0851 14.1206 21.0851C14.4613 21.0851 14.7881 21.2203 15.0292 21.4611L16.44 22.8702L20.0863 19.2257C20.3274 18.9849 20.6542 18.8497 20.9949 18.8497C21.3356 18.8497 21.6624 18.9849 21.9035 19.2257ZM11.7086 36.3222C12.9957 37.603 14.7382 38.321 16.5539 38.3188C18.3697 38.3165 20.1104 37.5942 21.3943 36.3102L23.8183 33.8862L14.1206 24.1885L11.6966 26.6125C10.4129 27.8966 9.69084 29.6375 9.68891 31.4533C9.68699 33.269 10.4053 35.0114 11.6863 36.2982L11.6966 36.3102L11.7086 36.3222Z" fill="#4A5568"/>
</svg>
