<svg width="48" height="48" viewBox="0 0 48 48" fill="none" xmlns="http://www.w3.org/2000/svg">
<path d="M44.5614 3.43871C44.422 3.29924 44.2566 3.18861 44.0745 3.11312C43.8924 3.03763 43.6972 2.99878 43.5001 2.99878C43.303 2.99878 43.1078 3.03763 42.9257 3.11312C42.7436 3.18861 42.5782 3.29924 42.4389 3.43871L32.6139 13.2656L31.607 12.2568C30.4805 11.1336 28.9546 10.5029 27.3639 10.5029C25.7731 10.5029 24.2472 11.1336 23.1207 12.2568L18.7501 16.6293L17.5614 15.4387C17.2799 15.1572 16.8981 14.9991 16.5001 14.9991C16.1021 14.9991 15.7203 15.1572 15.4389 15.4387C15.1574 15.7202 14.9993 16.1019 14.9993 16.5C14.9993 16.898 15.1574 17.2797 15.4389 17.5612L16.6295 18.75L12.257 23.1206C11.6997 23.6778 11.2576 24.3393 10.956 25.0673C10.6544 25.7953 10.4991 26.5757 10.4991 27.3637C10.4991 28.1518 10.6544 28.9321 10.956 29.6601C11.2576 30.3882 11.6997 31.0497 12.257 31.6068L13.2657 32.6137L3.43885 42.4387C3.29949 42.5781 3.18894 42.7435 3.11351 42.9256C3.03809 43.1077 2.99927 43.3029 2.99927 43.5C2.99927 43.6971 3.03809 43.8922 3.11351 44.0743C3.18894 44.2564 3.29949 44.4218 3.43885 44.5612C3.72031 44.8427 4.10206 45.0008 4.5001 45.0008C4.69719 45.0008 4.89236 44.962 5.07445 44.8865C5.25654 44.8111 5.42199 44.7006 5.56135 44.5612L15.3864 34.7343L16.3932 35.7431C16.9504 36.3004 17.6119 36.7425 18.3399 37.0441C19.068 37.3457 19.8483 37.5009 20.6364 37.5009C21.4244 37.5009 22.2047 37.3457 22.9328 37.0441C23.6608 36.7425 24.3223 36.3004 24.8795 35.7431L29.2501 31.3706L30.4389 32.5612C30.5782 32.7006 30.7437 32.8111 30.9258 32.8865C31.1078 32.962 31.303 33.0008 31.5001 33.0008C31.6972 33.0008 31.8924 32.962 32.0744 32.8865C32.2565 32.8111 32.422 32.7006 32.5614 32.5612C32.7007 32.4218 32.8113 32.2564 32.8867 32.0743C32.9621 31.8922 33.0009 31.6971 33.0009 31.5C33.0009 31.3029 32.9621 31.1077 32.8867 30.9256C32.8113 30.7435 32.7007 30.5781 32.5614 30.4387L31.3707 29.25L35.7432 24.8793C36.3005 24.3222 36.7426 23.6607 37.0442 22.9326C37.3458 22.2046 37.5011 21.4243 37.5011 20.6362C37.5011 19.8482 37.3458 19.0678 37.0442 18.3398C36.7426 17.6117 36.3005 16.9503 35.7432 16.3931L34.7345 15.3862L44.5614 5.56121C44.7008 5.4219 44.8115 5.25647 44.8869 5.07437C44.9624 4.89227 45.0013 4.69708 45.0013 4.49996C45.0013 4.30284 44.9624 4.10765 44.8869 3.92555C44.8115 3.74345 44.7008 3.57802 44.5614 3.43871ZM22.757 33.6262C22.1944 34.1884 21.4317 34.5042 20.6364 34.5042C19.841 34.5042 19.0783 34.1884 18.5157 33.6262L14.3795 29.4843C13.8173 28.9218 13.5015 28.159 13.5015 27.3637C13.5015 26.5684 13.8173 25.8056 14.3795 25.2431L18.7501 20.8706L27.1295 29.25L22.757 33.6262ZM33.6207 22.7625L29.2501 27.1293L20.8707 18.75L25.2432 14.3793C25.8058 13.8172 26.5685 13.5014 27.3639 13.5014C28.1592 13.5014 28.9219 13.8172 29.4845 14.3793L33.6207 18.5043C33.9008 18.7831 34.123 19.1144 34.2746 19.4793C34.4263 19.8442 34.5043 20.2354 34.5043 20.6306C34.5043 21.0257 34.4263 21.417 34.2746 21.7819C34.123 22.1467 33.9008 22.4781 33.6207 22.7568V22.7625ZM16.577 6.47433C16.4512 6.0969 16.4804 5.68494 16.6584 5.32909C16.8363 4.97324 17.1483 4.70265 17.5257 4.57683C17.9032 4.45102 18.3151 4.4803 18.671 4.65822C19.0268 4.83615 19.2974 5.14815 19.4232 5.52558L20.9232 10.0256C20.9855 10.2125 21.0104 10.4098 20.9964 10.6063C20.9825 10.8028 20.9299 10.9946 20.8418 11.1708C20.7537 11.347 20.6318 11.5041 20.483 11.6332C20.3342 11.7623 20.1614 11.8608 19.9745 11.9231C19.597 12.0489 19.1851 12.0196 18.8292 11.8417C18.653 11.7536 18.4959 11.6317 18.3668 11.4828C18.2378 11.334 18.1393 11.1612 18.077 10.9743L16.577 6.47433ZM4.57698 17.5256C4.63926 17.3387 4.73775 17.1659 4.86682 17.0171C4.99589 16.8682 5.15301 16.7463 5.32921 16.6582C5.50542 16.5701 5.69725 16.5176 5.89375 16.5036C6.09026 16.4896 6.28759 16.5145 6.47448 16.5768L10.9745 18.0768C11.1614 18.1391 11.3342 18.2376 11.483 18.3667C11.6318 18.4958 11.7537 18.6529 11.8418 18.8291C11.9299 19.0053 11.9825 19.1971 11.9964 19.3936C12.0104 19.5901 11.9855 19.7874 11.9232 19.9743C11.8609 20.1612 11.7624 20.334 11.6334 20.4828C11.5043 20.6317 11.3472 20.7536 11.171 20.8417C10.9948 20.9298 10.8029 20.9823 10.6064 20.9963C10.4099 21.0103 10.2126 20.9854 10.0257 20.9231L5.52573 19.4231C5.33883 19.3608 5.16603 19.2623 5.01721 19.1332C4.86838 19.0042 4.74643 18.847 4.65833 18.6708C4.57023 18.4946 4.5177 18.3028 4.50374 18.1063C4.48978 17.9098 4.51467 17.7125 4.57698 17.5256ZM43.4232 30.4743C43.3609 30.6612 43.2625 30.834 43.1334 30.9829C43.0043 31.1317 42.8472 31.2536 42.671 31.3417C42.4948 31.4298 42.303 31.4824 42.1064 31.4963C41.9099 31.5103 41.7126 31.4854 41.5257 31.4231L37.0257 29.9231C36.6483 29.7973 36.3363 29.5267 36.1584 29.1708C35.9804 28.815 35.9512 28.403 36.077 28.0256C36.2028 27.6481 36.4734 27.3361 36.8292 27.1582C37.1851 26.9803 37.597 26.951 37.9745 27.0768L42.4745 28.5768C42.6614 28.6391 42.8342 28.7376 42.983 28.8667C43.1318 28.9957 43.2538 29.1529 43.3419 29.3291C43.43 29.5053 43.4825 29.6971 43.4965 29.8936C43.5104 30.0901 43.4855 30.2874 43.4232 30.4743ZM31.4232 41.5256C31.549 41.903 31.5198 42.315 31.3418 42.6708C31.1639 43.0267 30.8519 43.2973 30.4745 43.4231C30.097 43.5489 29.6851 43.5196 29.3292 43.3417C28.9734 43.1638 28.7028 42.8518 28.577 42.4743L27.077 37.9743C26.9512 37.5969 26.9804 37.1849 27.1584 36.8291C27.3363 36.4732 27.6483 36.2026 28.0257 36.0768C28.4032 35.951 28.8151 35.9803 29.171 36.1582C29.5268 36.3362 29.7974 36.6481 29.9232 37.0256L31.4232 41.5256Z" fill="#4A5568"/>
</svg>
