<svg width="32" height="32" viewBox="0 0 32 32" fill="none" xmlns="http://www.w3.org/2000/svg">
<path d="M21.6041 5.42108V29.035C21.6041 29.4008 21.8987 29.6954 22.2644 29.6954H27.039C27.4047 29.6954 27.6993 29.4008 27.6993 29.035V2.66298C27.6993 2.15504 27.1457 1.83504 26.7089 2.08901L21.9343 4.84203C21.7311 4.95885 21.6041 5.17727 21.6041 5.416V5.42108Z" fill="white"/>
<path d="M12.8879 10.4548V29.0351C12.8879 29.4008 13.1825 29.6954 13.5482 29.6954H18.3228C18.6885 29.6954 18.9831 29.4008 18.9831 29.0351V7.69667C18.9831 7.18873 18.4295 6.86874 17.9927 7.1227L13.2181 9.87572C13.0149 9.99254 12.8879 10.211 12.8879 10.4497V10.4548Z" fill="white"/>
<path d="M4.16666 15.4833V29.03C4.16666 29.3957 4.46126 29.6903 4.82697 29.6903H9.60158C9.96729 29.6903 10.2619 29.3957 10.2619 29.03V12.7252C10.2619 12.2173 9.70824 11.8973 9.27142 12.1513L4.49681 14.9043C4.29364 15.0211 4.16666 15.2395 4.16666 15.4783V15.4833Z" fill="white"/>
</svg>
