<svg width="24" height="24" viewBox="0 0 24 24" fill="none" xmlns="http://www.w3.org/2000/svg">
<path d="M12 6.75002C10.9617 6.75002 9.94663 7.05793 9.08328 7.6348C8.21992 8.21168 7.54701 9.03162 7.14965 9.99093C6.75229 10.9502 6.64832 12.0058 6.8509 13.0242C7.05347 14.0426 7.55348 14.9781 8.28771 15.7123C9.02193 16.4466 9.95739 16.9466 10.9758 17.1491C11.9942 17.3517 13.0498 17.2477 14.0091 16.8504C14.9684 16.453 15.7884 15.7801 16.3652 14.9168C16.9421 14.0534 17.25 13.0384 17.25 12C17.25 10.6076 16.6969 9.27227 15.7123 8.28771C14.7278 7.30314 13.3924 6.75002 12 6.75002ZM12 15.75C11.2583 15.75 10.5333 15.5301 9.91663 15.118C9.29995 14.706 8.8193 14.1203 8.53547 13.4351C8.25164 12.7499 8.17738 11.9959 8.32207 11.2684C8.46677 10.541 8.82392 9.87282 9.34837 9.34837C9.87282 8.82392 10.541 8.46677 11.2684 8.32207C11.9959 8.17738 12.7499 8.25164 13.4351 8.53547C14.1203 8.8193 14.706 9.29995 15.118 9.91663C15.5301 10.5333 15.75 11.2583 15.75 12C15.75 12.9946 15.3549 13.9484 14.6517 14.6517C13.9484 15.3549 12.9946 15.75 12 15.75ZM22.0125 14.1L20.6156 12.2438C20.625 12.075 20.6156 11.8969 20.6156 11.7656L22.0125 9.90002C22.082 9.80923 22.1292 9.70341 22.1504 9.59107C22.1715 9.47873 22.1661 9.36299 22.1344 9.25314C21.8981 8.38882 21.5548 7.55739 21.1125 6.77814C21.0554 6.67916 20.977 6.59414 20.883 6.52927C20.7889 6.4644 20.6816 6.42131 20.5688 6.40314L18.2719 6.07502L17.925 5.72814L17.5969 3.43127C17.5787 3.31846 17.5356 3.21113 17.4708 3.11707C17.4059 3.02301 17.3209 2.94459 17.2219 2.88752C16.4426 2.44519 15.6112 2.10191 14.7469 1.86564C14.637 1.83398 14.5213 1.82851 14.409 1.84968C14.2966 1.87084 14.1908 1.91805 14.1 1.98752L12.2438 3.37502H11.7563L9.90002 1.98752C9.80923 1.91805 9.70341 1.87084 9.59107 1.84968C9.47873 1.82851 9.36299 1.83398 9.25314 1.86564C8.38882 2.10191 7.55739 2.44519 6.77814 2.88752C6.67916 2.94459 6.59414 3.02301 6.52927 3.11707C6.4644 3.21113 6.42131 3.31846 6.40314 3.43127L6.07502 5.72814L5.72814 6.07502L3.43127 6.40314C3.31846 6.42131 3.21113 6.4644 3.11707 6.52927C3.02301 6.59414 2.94459 6.67916 2.88752 6.77814C2.44519 7.55739 2.10191 8.38882 1.86564 9.25314C1.83398 9.36299 1.82851 9.47873 1.84968 9.59107C1.87084 9.70341 1.91805 9.80923 1.98752 9.90002L3.38439 11.7563V12.2344L1.98752 14.1C1.91805 14.1908 1.87084 14.2966 1.84968 14.409C1.82851 14.5213 1.83398 14.637 1.86564 14.7469C2.10191 15.6112 2.44519 16.4426 2.88752 17.2219C2.94459 17.3209 3.02301 17.4059 3.11707 17.4708C3.21113 17.5356 3.31846 17.5787 3.43127 17.5969L5.72814 17.925L6.07502 18.2719L6.40314 20.5688C6.42131 20.6816 6.4644 20.7889 6.52927 20.883C6.59414 20.977 6.67916 21.0554 6.77814 21.1125C7.55739 21.5548 8.38882 21.8981 9.25314 22.1344C9.31713 22.1529 9.3834 22.1624 9.45002 22.1625C9.61263 22.1646 9.7712 22.1118 9.90002 22.0125L11.7563 20.625H12.2438L14.1 22.0125C14.1908 22.082 14.2966 22.1292 14.409 22.1504C14.5213 22.1715 14.637 22.1661 14.7469 22.1344C15.6112 21.8981 16.4426 21.5548 17.2219 21.1125C17.3209 21.0554 17.4059 20.977 17.4708 20.883C17.5356 20.7889 17.5787 20.6816 17.5969 20.5688L17.925 18.2625C18.0375 18.15 18.1688 18.0281 18.2625 17.925L20.5688 17.5969C20.6816 17.5787 20.7889 17.5356 20.883 17.4708C20.977 17.4059 21.0554 17.3209 21.1125 17.2219C21.5548 16.4426 21.8981 15.6112 22.1344 14.7469C22.1661 14.637 22.1715 14.5213 22.1504 14.409C22.1292 14.2966 22.082 14.1908 22.0125 14.1ZM19.9781 16.1625L17.7938 16.4719C17.6251 16.4995 17.4703 16.5819 17.3531 16.7063C17.2406 16.8281 16.8938 17.1844 16.725 17.3344C16.5881 17.4521 16.4982 17.6152 16.4719 17.7938L16.1625 19.9781C15.6955 20.2274 15.2058 20.4315 14.7 20.5875L12.9281 19.2563C12.7855 19.1497 12.6086 19.0996 12.4313 19.1156H11.5688C11.3915 19.0996 11.2145 19.1497 11.0719 19.2563L9.30002 20.5875C8.79422 20.4315 8.30449 20.2274 7.83752 19.9781L7.52814 17.7938C7.50181 17.6152 7.41193 17.4521 7.27502 17.3344C7.05808 17.1456 6.85447 16.942 6.66564 16.725C6.54797 16.5881 6.38487 16.4982 6.20627 16.4719L4.02189 16.1625C3.77656 15.6937 3.57266 15.2043 3.41252 14.7L4.74377 12.9281C4.8403 12.7908 4.89263 12.6273 4.89377 12.4594C4.88439 12.2906 4.87502 11.8031 4.88439 11.5688C4.90039 11.3915 4.85031 11.2145 4.74377 11.0719L3.41252 9.30002C3.57266 8.7957 3.77656 8.30634 4.02189 7.83752L6.20627 7.52814C6.38487 7.50181 6.54797 7.41193 6.66564 7.27502C6.85447 7.05808 7.05808 6.85447 7.27502 6.66564C7.41193 6.54797 7.50181 6.38487 7.52814 6.20627L7.83752 4.02189C8.30634 3.77656 8.7957 3.57266 9.30002 3.41252L11.0719 4.74377C11.2145 4.85031 11.3915 4.90039 11.5688 4.88439C11.85 4.87502 12.15 4.87502 12.4313 4.88439C12.6086 4.90039 12.7855 4.85031 12.9281 4.74377L14.7 3.41252C15.2058 3.56858 15.6955 3.77263 16.1625 4.02189L16.4719 6.20627C16.4982 6.38487 16.5881 6.54797 16.725 6.66564C16.942 6.85447 17.1456 7.05808 17.3344 7.27502C17.4521 7.41193 17.6152 7.50181 17.7938 7.52814L19.9781 7.83752C20.2274 8.30449 20.4315 8.79422 20.5875 9.30002L19.2563 11.0719C19.1597 11.2092 19.1074 11.3728 19.1063 11.5406C19.1156 11.7094 19.125 12.1969 19.1156 12.4313C19.0996 12.6086 19.1497 12.7855 19.2563 12.9281L20.5875 14.7C20.4315 15.2058 20.2274 15.6955 19.9781 16.1625Z" fill="#94A3B8"/>
</svg>
