<svg width="171" height="28" viewBox="0 0 171 28" fill="none" xmlns="http://www.w3.org/2000/svg">
<path d="M96.1828 23.1703C94.9057 23.1703 93.7307 22.9232 92.6068 22.4782C91.534 22.0333 90.5634 21.3906 89.746 20.5996C88.9286 19.8087 88.3156 18.8694 87.8558 17.7818C87.3961 16.7436 87.1406 15.5572 87.1406 14.3707C87.1406 13.1842 87.3961 11.9978 87.8558 10.9596C88.3156 9.92143 88.9286 8.98214 89.746 8.14173C90.5634 7.35075 91.534 6.70808 92.6068 6.26315C93.6796 5.81823 94.9057 5.57104 96.1828 5.57104C97.0513 5.57104 97.9197 5.66992 98.686 5.86766C99.5034 6.06541 100.27 6.36202 100.985 6.75751C101.7 7.153 102.364 7.64737 102.926 8.2406L102.16 9.08102C101.445 8.33947 100.525 7.74624 99.4523 7.30131C98.3795 6.85639 97.2556 6.65864 96.1317 6.65864C95.0078 6.65864 93.9861 6.85639 93.0155 7.25188C92.0449 7.64737 91.2275 8.19116 90.5123 8.88327C89.7971 9.57538 89.2351 10.4158 88.8775 11.3551C88.4689 12.2944 88.2645 13.2831 88.2645 14.3707C88.2645 15.4583 88.4689 16.447 88.8775 17.3863C89.2862 18.3256 89.8482 19.1166 90.5123 19.8581C91.1764 20.5996 92.0449 21.094 93.0155 21.4895C93.9861 21.885 95.0078 22.0827 96.1317 22.0827C97.2556 22.0827 98.3795 21.885 99.4523 21.4401C100.525 20.9951 101.445 20.4019 102.16 19.6604L102.926 20.5008C102.364 21.094 101.7 21.5884 100.985 21.9839C100.27 22.3794 99.5034 22.676 98.686 22.8737C97.8686 23.0715 97.0513 23.1703 96.1828 23.1703Z" fill="white"/>
<path d="M107.729 22.8737V5.86766L108.853 5.62048V12.6404C109.875 11.3551 111.203 10.7124 112.94 10.7124C113.859 10.7124 114.728 10.9102 115.392 11.3056C116.107 11.7011 116.669 12.2449 117.027 12.8876C117.435 13.5797 117.64 14.3707 117.64 15.2605V22.8737H116.516V15.5077C116.516 14.3213 116.158 13.382 115.494 12.6899C114.83 11.9978 113.859 11.6517 112.633 11.6517C111.816 11.6517 111.05 11.8494 110.386 12.2449C109.722 12.6404 109.211 13.1842 108.802 13.8763V22.8737H107.678H107.729Z" fill="white"/>
<path d="M126.631 23.1209C125.711 23.1209 124.945 22.9726 124.23 22.676C123.566 22.3793 123.004 21.9344 122.646 21.3906C122.238 20.8468 122.084 20.2042 122.084 19.512C122.084 18.4244 122.544 17.5346 123.413 16.8425C124.281 16.1504 125.507 15.8538 126.938 15.8538C128.368 15.8538 129.696 16.1998 130.871 16.8919V14.9145C130.871 13.8269 130.565 12.9865 129.952 12.4427C129.339 11.8989 128.419 11.6517 127.295 11.6517C126.733 11.6517 126.12 11.7506 125.507 11.8989C124.894 12.0472 124.179 12.3932 123.361 12.7887L122.902 11.8494C123.668 11.4539 124.434 11.1573 125.15 11.009C125.865 10.8607 126.58 10.7124 127.295 10.7124C128.777 10.7124 129.952 11.0585 130.769 11.7506C131.586 12.4427 131.995 13.4314 131.995 14.7662V22.9231H130.871V21.5884C130.309 22.0827 129.645 22.4782 128.981 22.7748C128.317 23.0715 127.499 23.1703 126.682 23.1703L126.631 23.1209ZM123.157 19.512C123.157 20.303 123.515 20.9457 124.179 21.4401C124.843 21.9344 125.711 22.1816 126.733 22.1816C127.602 22.1816 128.419 22.0333 129.083 21.7367C129.747 21.4401 130.36 20.9951 130.871 20.4513V17.9795C130.309 17.584 129.696 17.2874 129.083 17.0897C128.419 16.8919 127.704 16.7931 126.835 16.7931C125.763 16.7931 124.843 17.0402 124.179 17.5346C123.515 18.029 123.157 18.6716 123.157 19.512Z" fill="white"/>
<path d="M137.256 22.8737V10.9101H138.38V12.7887C138.738 12.146 139.197 11.6022 139.811 11.2068C140.424 10.8113 141.088 10.6135 141.905 10.6135C142.263 10.6135 142.62 10.6135 142.978 10.7124V11.8C142.978 11.8 142.62 11.7011 142.416 11.6517C142.212 11.6517 142.058 11.6517 141.905 11.6517C141.088 11.6517 140.372 11.8989 139.759 12.3932C139.146 12.8876 138.687 13.5797 138.38 14.4695V22.8737H137.256Z" fill="white"/>
<path d="M151.407 23.1209C150.487 23.1209 149.772 22.8737 149.261 22.4288C148.751 21.9838 148.495 21.3412 148.495 20.5502V11.8988H145.788V10.9101H148.495V7.89452L149.619 7.54846V10.9101H153.45V11.8988H149.619V20.2041C149.619 20.8962 149.772 21.3906 150.079 21.6872C150.385 21.9838 150.896 22.1321 151.611 22.1321C152.02 22.1321 152.327 22.1321 152.582 22.0333C152.837 21.9344 153.144 21.885 153.399 21.7861V22.8242C153.093 22.9231 152.735 23.022 152.429 23.0714C152.122 23.1209 151.765 23.1209 151.407 23.1209Z" fill="white"/>
<path d="M161.215 23.1209C160.244 23.1209 159.325 22.9726 158.508 22.6265C157.639 22.2805 156.924 21.8355 156.311 21.1929L157.179 20.5008C157.69 20.9951 158.303 21.3906 159.018 21.6872C159.734 21.9839 160.449 22.1322 161.266 22.1322C162.39 22.1322 163.31 21.885 164.025 21.4401C164.74 20.9457 165.047 20.3525 165.047 19.5615C165.047 19.0177 164.842 18.5233 164.433 18.1278C164.025 17.7323 163.361 17.5346 162.39 17.3863L160.347 17.1391C159.172 16.9908 158.303 16.6942 157.69 16.1504C157.077 15.6066 156.771 14.9145 156.771 14.0246C156.771 13.382 156.975 12.7887 157.333 12.2944C157.69 11.8 158.201 11.4045 158.865 11.1079C159.529 10.8113 160.296 10.663 161.164 10.663C162.032 10.663 162.799 10.7618 163.565 11.009C164.331 11.2562 165.098 11.6517 165.915 12.1955L165.251 13.0853C164.536 12.591 163.872 12.2449 163.207 11.9977C162.543 11.7506 161.879 11.6517 161.164 11.6517C160.193 11.6517 159.376 11.8494 158.763 12.2449C158.15 12.6404 157.843 13.2336 157.843 14.0246C157.843 14.6179 158.048 15.0628 158.456 15.4583C158.865 15.8538 159.529 16.0515 160.449 16.1504L162.441 16.3976C163.667 16.5459 164.587 16.8919 165.2 17.4357C165.813 17.9795 166.119 18.6716 166.119 19.5615C166.119 20.2536 165.915 20.8468 165.506 21.3906C165.098 21.9344 164.536 22.3793 163.769 22.676C163.054 22.9726 162.186 23.1209 161.215 23.1209Z" fill="white"/>
<path d="M35.1353 20.5502C35.1353 20.8962 35.0842 21.1929 34.9309 21.44C34.7777 21.6872 34.6244 21.9838 34.4201 22.1816C34.2157 22.3793 33.9603 22.5771 33.6538 22.6759C33.3473 22.7748 33.0408 22.8737 32.7342 22.8737H26.2463C25.9398 22.8737 25.6333 22.8242 25.3268 22.6759C25.0203 22.5276 24.7649 22.3793 24.5605 22.1816C24.3562 21.9838 24.1518 21.7367 24.0496 21.44C23.9475 21.1434 23.8453 20.8468 23.8453 20.5502V12.591C23.8453 12.2449 23.8964 11.9483 24.0496 11.7011C24.2029 11.4539 24.3562 11.1573 24.5605 10.9596C24.7649 10.7618 25.0203 10.5641 25.3268 10.4652C25.6333 10.3663 25.9398 10.2675 26.2463 10.2675H32.7342C33.0918 10.2675 33.3984 10.3169 33.6538 10.4652C33.9092 10.6135 34.2157 10.7618 34.4201 10.9596C34.6244 11.1573 34.8288 11.4045 34.9309 11.7011C35.0331 11.9977 35.1353 12.2943 35.1353 12.591V20.5502ZM26.2463 12.591V20.5502H32.7342V12.591H26.2463Z" fill="white"/>
<path d="M41.8776 22.8737L37.6375 10.218H40.0896L43.2059 19.7592L46.0667 10.218H48.5188L51.3796 19.7592L54.4958 10.218H56.948L52.7078 22.8737H50.2046L47.2927 13.5797L44.3808 22.8737H41.8776Z" fill="white"/>
<path d="M70.5378 17.7818H61.9043V20.5502H70.5378V22.8737H61.9043C61.5978 22.8737 61.2912 22.8242 60.9847 22.6759C60.6782 22.5276 60.4228 22.3793 60.2184 22.1816C60.0141 21.9838 59.8097 21.7367 59.7076 21.44C59.6054 21.1434 59.5032 20.8468 59.5032 20.5502V12.591C59.5032 12.2449 59.5543 11.9483 59.7076 11.7011C59.8608 11.4539 60.0141 11.1573 60.2184 10.9596C60.4228 10.7618 60.6782 10.5641 60.9847 10.4652C61.2912 10.3663 61.5978 10.2675 61.9043 10.2675H68.1367C68.4943 10.2675 68.8009 10.3169 69.0563 10.4652C69.3117 10.6135 69.6182 10.7618 69.8226 10.9596C70.0269 11.1573 70.2313 11.4045 70.3334 11.7011C70.4356 11.9977 70.5378 12.2943 70.5378 12.591V17.7818ZM61.9043 12.591V15.4088H68.1367V12.591H61.9043Z" fill="white"/>
<path d="M76.9746 12.591V22.8737H74.5735V10.2675H76.9746V12.4921C76.9746 12.1955 77.0768 11.8989 77.1789 11.6022C77.2811 11.3056 77.4854 11.1079 77.6898 10.9101C77.8941 10.7124 78.1496 10.5641 78.4561 10.4158C78.7626 10.2675 79.0691 10.2675 79.3756 10.2675H81.9299C82.2875 10.2675 82.594 10.3169 82.8494 10.4652C83.1049 10.6135 83.4114 10.7618 83.6157 10.9596C83.8201 11.1573 84.0244 11.4045 84.1266 11.7011C84.2288 11.9977 84.3309 12.2943 84.3309 12.591V14.7167H81.9299V12.591H76.9235H76.9746Z" fill="white"/>
<path d="M4.27969 11.7506H10.5122V17.7818C10.5122 21.0941 7.70244 23.813 4.27969 23.813V11.7506Z" fill="#65BEEB"/>
<path d="M12.0969 4.18689C15.5196 4.18689 18.3294 6.90588 18.3294 10.2181C18.3294 13.5303 15.5196 16.2493 12.0969 16.2493V4.18689Z" fill="#6DCCDF"/>
<path d="M10.5122 4.18689V10.2181H4.27969C4.27969 6.90588 7.08941 4.18689 10.5122 4.18689Z" fill="#1181C4"/>
</svg>
